<svg width="25" height="24" viewBox="0 0 25 24" fill="none" xmlns="http://www.w3.org/2000/svg">
<path d="M20.2238 5.34C18.8694 4.714 17.4213 4.25905 15.9072 4C15.7213 4.33209 15.5041 4.77877 15.3543 5.1341C13.7448 4.89499 12.1502 4.89499 10.5703 5.1341C10.4206 4.77877 10.1984 4.33209 10.0108 4C8.49517 4.25905 7.04533 4.71567 5.69094 5.34331C2.95912 9.42136 2.21857 13.3981 2.58885 17.3184C4.40073 18.655 6.15666 19.467 7.88296 19.9984C8.3092 19.4189 8.68934 18.8028 9.01682 18.1536C8.39312 17.9195 7.79574 17.6306 7.2313 17.2952C7.38104 17.1856 7.52752 17.071 7.66903 16.9531C11.1118 18.5438 14.8524 18.5438 18.254 16.9531C18.3972 17.071 18.5436 17.1856 18.6917 17.2952C18.1256 17.6322 17.5266 17.9211 16.9029 18.1553C17.2304 18.8028 17.6089 19.4205 18.0367 20C19.7647 19.4687 21.5223 18.6567 23.3342 17.3184C23.7686 12.7738 22.592 8.83355 20.2238 5.34ZM9.48585 14.9075C8.45237 14.9075 7.60484 13.9543 7.60484 12.7937C7.60484 11.6331 8.43427 10.6783 9.48585 10.6783C10.5374 10.6783 11.3849 11.6314 11.3669 12.7937C11.3685 13.9543 10.5374 14.9075 9.48585 14.9075ZM16.4372 14.9075C15.4037 14.9075 14.5562 13.9543 14.5562 12.7937C14.5562 11.6331 15.3856 10.6783 16.4372 10.6783C17.4887 10.6783 18.3363 11.6314 18.3182 12.7937C18.3182 13.9543 17.4887 14.9075 16.4372 14.9075Z" fill="white"/>
</svg>
