<svg width="24" height="24" viewBox="0 0 24 24" fill="none" xmlns="http://www.w3.org/2000/svg">
<path d="M19.7238 5.34C18.3694 4.714 16.9213 4.25905 15.4072 4C15.2213 4.33209 15.0041 4.77877 14.8543 5.1341C13.2448 4.89499 11.6502 4.89499 10.0703 5.1341C9.9206 4.77877 9.69843 4.33209 9.51083 4C7.99517 4.25905 6.54533 4.71567 5.19094 5.34331C2.45912 9.42136 1.71857 13.3981 2.08885 17.3184C3.90073 18.655 5.65666 19.467 7.38296 19.9984C7.8092 19.4189 8.18934 18.8028 8.51682 18.1536C7.89312 17.9195 7.29574 17.6306 6.7313 17.2952C6.88104 17.1856 7.02752 17.071 7.16903 16.9531C10.6118 18.5438 14.3524 18.5438 17.754 16.9531C17.8972 17.071 18.0436 17.1856 18.1917 17.2952C17.6256 17.6322 17.0266 17.9211 16.4029 18.1553C16.7304 18.8028 17.1089 19.4205 17.5367 20C19.2647 19.4687 21.0223 18.6567 22.8342 17.3184C23.2686 12.7738 22.092 8.83355 19.7238 5.34ZM8.98585 14.9075C7.95237 14.9075 7.10484 13.9543 7.10484 12.7937C7.10484 11.6331 7.93427 10.6783 8.98585 10.6783C10.0374 10.6783 10.8849 11.6314 10.8669 12.7937C10.8685 13.9543 10.0374 14.9075 8.98585 14.9075ZM15.9372 14.9075C14.9037 14.9075 14.0562 13.9543 14.0562 12.7937C14.0562 11.6331 14.8856 10.6783 15.9372 10.6783C16.9887 10.6783 17.8363 11.6314 17.8182 12.7937C17.8182 13.9543 16.9887 14.9075 15.9372 14.9075Z" fill="#878787"/>
</svg>
