<svg width="24" height="25" viewBox="0 0 24 25" fill="none" xmlns="http://www.w3.org/2000/svg">
<path d="M19.7238 5.84C18.3694 5.214 16.9213 4.75905 15.4072 4.5C15.2213 4.83209 15.0041 5.27877 14.8543 5.6341C13.2448 5.39499 11.6502 5.39499 10.0703 5.6341C9.9206 5.27877 9.69843 4.83209 9.51083 4.5C7.99517 4.75905 6.54533 5.21567 5.19094 5.84331C2.45912 9.92136 1.71857 13.8981 2.08885 17.8184C3.90073 19.155 5.65666 19.967 7.38296 20.4984C7.8092 19.9189 8.18934 19.3028 8.51682 18.6536C7.89312 18.4195 7.29574 18.1306 6.7313 17.7952C6.88104 17.6856 7.02752 17.571 7.16903 17.4531C10.6118 19.0438 14.3524 19.0438 17.754 17.4531C17.8972 17.571 18.0436 17.6856 18.1917 17.7952C17.6256 18.1322 17.0266 18.4211 16.4029 18.6553C16.7304 19.3028 17.1089 19.9205 17.5367 20.5C19.2647 19.9687 21.0223 19.1567 22.8342 17.8184C23.2686 13.2738 22.092 9.33355 19.7238 5.84ZM8.98585 15.4075C7.95237 15.4075 7.10484 14.4543 7.10484 13.2937C7.10484 12.1331 7.93428 11.1783 8.98585 11.1783C10.0374 11.1783 10.8849 12.1314 10.8669 13.2937C10.8685 14.4543 10.0374 15.4075 8.98585 15.4075ZM15.9372 15.4075C14.9037 15.4075 14.0562 14.4543 14.0562 13.2937C14.0562 12.1331 14.8856 11.1783 15.9372 11.1783C16.9887 11.1783 17.8363 12.1314 17.8182 13.2937C17.8182 14.4543 16.9887 15.4075 15.9372 15.4075Z" fill="#141722"/>
</svg>
