<svg width="24" height="24" viewBox="0 0 24 24" fill="none" xmlns="http://www.w3.org/2000/svg">
<path d="M21.1822 5.89405C20.4764 6.2153 19.7179 6.43243 18.9219 6.53008C19.7344 6.03016 20.3584 5.23857 20.6523 4.2954C19.8919 4.75824 19.0496 5.0944 18.1532 5.27559C17.4353 4.49056 16.4125 4 15.2806 4C13.1071 4 11.345 5.8085 11.345 8.03914C11.345 8.35571 11.3799 8.66401 11.447 8.95963C8.17621 8.79119 5.27639 7.18311 3.33537 4.73937C2.99661 5.33594 2.80254 6.0298 2.80254 6.77003C2.80254 8.17136 3.49738 9.4077 4.55335 10.132C3.90819 10.1111 3.30141 9.92937 2.77075 9.62684C2.77047 9.64369 2.77047 9.66061 2.77047 9.67761C2.77047 11.6347 4.12703 13.2672 5.92737 13.6383C5.59711 13.7306 5.24945 13.7799 4.89049 13.7799C4.63691 13.7799 4.39036 13.7546 4.15011 13.7075C4.65088 15.3122 6.10426 16.48 7.82637 16.5126C6.4795 17.5959 4.78257 18.2417 2.9388 18.2417C2.62116 18.2417 2.30788 18.2226 2 18.1853C3.74162 19.3313 5.81027 20 8.03272 20C15.2714 20 19.2298 13.8452 19.2298 8.50752C19.2298 8.33238 19.226 8.15818 19.2184 7.98499C19.9873 7.4155 20.6546 6.70407 21.1822 5.89405Z" fill="#878787"/>
</svg>
