<svg width="25" height="24" viewBox="0 0 25 24" fill="none" xmlns="http://www.w3.org/2000/svg">
<path d="M21.6822 5.89405C20.9764 6.2153 20.2179 6.43243 19.4219 6.53008C20.2344 6.03016 20.8584 5.23857 21.1523 4.2954C20.3919 4.75824 19.5496 5.0944 18.6532 5.27559C17.9353 4.49056 16.9125 4 15.7806 4C13.6071 4 11.845 5.8085 11.845 8.03914C11.845 8.35571 11.8799 8.66401 11.947 8.95963C8.67621 8.79119 5.77639 7.18311 3.83537 4.73937C3.49661 5.33594 3.30254 6.0298 3.30254 6.77003C3.30254 8.17136 3.99738 9.4077 5.05335 10.132C4.40819 10.1111 3.80141 9.92937 3.27075 9.62684C3.27047 9.64369 3.27047 9.66061 3.27047 9.67761C3.27047 11.6347 4.62703 13.2672 6.42737 13.6383C6.09711 13.7306 5.74945 13.7799 5.39049 13.7799C5.13691 13.7799 4.89036 13.7546 4.65011 13.7075C5.15088 15.3122 6.60426 16.48 8.32637 16.5126C6.9795 17.5959 5.28257 18.2417 3.4388 18.2417C3.12116 18.2417 2.80788 18.2226 2.5 18.1853C4.24162 19.3313 6.31027 20 8.53272 20C15.7714 20 19.7298 13.8452 19.7298 8.50752C19.7298 8.33238 19.726 8.15818 19.7185 7.98499C20.4873 7.4155 21.1546 6.70407 21.6822 5.89405Z" fill="white"/>
</svg>
