<svg width="24" height="25" viewBox="0 0 24 25" fill="none" xmlns="http://www.w3.org/2000/svg">
<path d="M21.1822 6.39405C20.4764 6.7153 19.7179 6.93243 18.9219 7.03008C19.7344 6.53016 20.3584 5.73857 20.6523 4.7954C19.8919 5.25824 19.0496 5.5944 18.1532 5.77559C17.4353 4.99056 16.4125 4.5 15.2806 4.5C13.1071 4.5 11.345 6.3085 11.345 8.53914C11.345 8.85571 11.3799 9.16401 11.447 9.45963C8.17621 9.29119 5.27639 7.68311 3.33537 5.23937C2.99661 5.83594 2.80254 6.5298 2.80254 7.27003C2.80254 8.67136 3.49738 9.9077 4.55335 10.632C3.90819 10.6111 3.30141 10.4294 2.77075 10.1268C2.77047 10.1437 2.77047 10.1606 2.77047 10.1776C2.77047 12.1347 4.12703 13.7672 5.92737 14.1383C5.59711 14.2306 5.24945 14.2799 4.89049 14.2799C4.63691 14.2799 4.39036 14.2546 4.15011 14.2075C4.65088 15.8122 6.10426 16.98 7.82637 17.0126C6.4795 18.0959 4.78257 18.7417 2.9388 18.7417C2.62116 18.7417 2.30788 18.7226 2 18.6853C3.74162 19.8313 5.81027 20.5 8.03272 20.5C15.2714 20.5 19.2298 14.3452 19.2298 9.00752C19.2298 8.83238 19.226 8.65818 19.2184 8.48499C19.9873 7.9155 20.6546 7.20407 21.1822 6.39405Z" fill="#141722"/>
</svg>
